<svg width="182" height="13" viewBox="0 0 182 13" fill="none" xmlns="http://www.w3.org/2000/svg">
<path d="M6.64 12.112C5.79733 12.112 5.01867 11.968 4.304 11.68C3.58933 11.392 2.96533 10.9867 2.432 10.464C1.90933 9.94133 1.49867 9.328 1.2 8.624C0.912 7.92 0.768 7.152 0.768 6.32C0.768 5.49867 0.912 4.736 1.2 4.032C1.49867 3.328 1.90933 2.72 2.432 2.208C2.96533 1.68533 3.58933 1.28 4.304 0.992C5.01867 0.704 5.79733 0.559999 6.64 0.559999C7.48267 0.559999 8.26133 0.704 8.976 0.992C9.70133 1.28 10.3307 1.68533 10.864 2.208C11.3973 2.72 11.808 3.328 12.096 4.032C12.3947 4.736 12.544 5.49867 12.544 6.32C12.544 7.152 12.3947 7.92 12.096 8.624C11.808 9.328 11.3973 9.94133 10.864 10.464C10.3307 10.9867 9.70133 11.392 8.976 11.68C8.26133 11.968 7.48267 12.112 6.64 12.112ZM6.64 11.52C7.38667 11.52 8.07467 11.3973 8.704 11.152C9.344 10.896 9.904 10.5387 10.384 10.08C10.864 9.62133 11.2373 9.07733 11.504 8.448C11.7813 7.81867 11.92 7.12 11.92 6.352C11.92 5.616 11.7867 4.93333 11.52 4.304C11.2533 3.664 10.88 3.10933 10.4 2.64C9.93067 2.17067 9.376 1.808 8.736 1.552C8.096 1.28533 7.39733 1.152 6.64 1.152C5.89333 1.152 5.2 1.28533 4.56 1.552C3.92 1.808 3.36 2.17067 2.88 2.64C2.41067 3.10933 2.04267 3.65867 1.776 4.288C1.52 4.90667 1.392 5.58933 1.392 6.336C1.392 7.072 1.52 7.75467 1.776 8.384C2.04267 9.00267 2.41067 9.552 2.88 10.032C3.36 10.5013 3.92 10.8693 4.56 11.136C5.2 11.392 5.89333 11.52 6.64 11.52ZM6.768 10.032C6.27733 10.032 5.808 9.94667 5.36 9.776C4.912 9.59467 4.512 9.344 4.16 9.024C3.81867 8.69333 3.54133 8.304 3.328 7.856C3.12533 7.39733 3.024 6.88533 3.024 6.32C3.024 5.872 3.09867 5.42933 3.248 4.992C3.39733 4.544 3.62133 4.13867 3.92 3.776C4.21867 3.41333 4.59733 3.12533 5.056 2.912C5.51467 2.688 6.05333 2.576 6.672 2.576C7.376 2.576 8 2.73067 8.544 3.04C9.09867 3.33867 9.49867 3.776 9.744 4.352L8.688 4.688C8.54933 4.368 8.35733 4.128 8.112 3.968C7.87733 3.79733 7.632 3.68533 7.376 3.632C7.12 3.568 6.88533 3.536 6.672 3.536C6.24533 3.536 5.872 3.616 5.552 3.776C5.232 3.936 4.96533 4.15467 4.752 4.432C4.54933 4.69867 4.39467 4.99733 4.288 5.328C4.192 5.648 4.144 5.97867 4.144 6.32C4.144 6.768 4.21867 7.16267 4.368 7.504C4.528 7.84533 4.73067 8.13333 4.976 8.368C5.232 8.60267 5.50933 8.784 5.808 8.912C6.11733 9.02933 6.416 9.088 6.704 9.088C6.97067 9.088 7.24267 9.04 7.52 8.944C7.79733 8.83733 8.05333 8.69333 8.288 8.512C8.52267 8.33067 8.69333 8.11733 8.8 7.872L9.856 8.176C9.74933 8.432 9.55733 8.704 9.28 8.992C9.00267 9.28 8.65067 9.52533 8.224 9.728C7.79733 9.93067 7.312 10.032 6.768 10.032ZM14.0165 12C14.0165 11.6373 14.0485 11.2747 14.1125 10.912C14.1765 10.5387 14.2992 10.1707 14.4805 9.808C14.6618 9.44533 14.9285 9.09867 15.2805 8.768C15.6325 8.42667 16.0965 8.10667 16.6725 7.808C16.9818 7.648 17.3018 7.49333 17.6325 7.344C17.9632 7.184 18.2725 7.01333 18.5605 6.832C18.8592 6.64 19.0938 6.42667 19.2645 6.192C19.4458 5.94667 19.5365 5.65867 19.5365 5.328C19.5365 5.06133 19.4565 4.8 19.2965 4.544C19.1472 4.288 18.9125 4.08 18.5925 3.92C18.2832 3.76 17.8938 3.68 17.4245 3.68C17.0832 3.68 16.7738 3.728 16.4965 3.824C16.2192 3.92 15.9738 4.04267 15.7605 4.192C15.5472 4.33067 15.3658 4.47467 15.2165 4.624C15.0672 4.76267 14.9445 4.88 14.8485 4.976L14.1605 4.224C14.2138 4.16 14.3312 4.048 14.5125 3.888C14.7045 3.71733 14.9445 3.54133 15.2325 3.36C15.5312 3.17867 15.8778 3.024 16.2725 2.896C16.6778 2.768 17.1205 2.704 17.6005 2.704C18.2512 2.704 18.8058 2.82133 19.2645 3.056C19.7338 3.28 20.0912 3.584 20.3365 3.968C20.5818 4.352 20.7045 4.768 20.7045 5.216C20.7045 5.65333 20.6085 6.032 20.4165 6.352C20.2352 6.66133 19.9952 6.93333 19.6965 7.168C19.4085 7.392 19.1045 7.58933 18.7845 7.76C18.4752 7.92 18.1925 8.05867 17.9365 8.176C17.4352 8.41067 17.0138 8.64533 16.6725 8.88C16.3312 9.11467 16.0592 9.35467 15.8565 9.6C15.6538 9.83467 15.4938 10.0693 15.3765 10.304C15.2698 10.528 15.1952 10.7627 15.1525 11.008H20.8805V12H14.0165ZM30.5683 7.312C30.5683 8.25067 30.3923 9.088 30.0403 9.824C29.6989 10.5493 29.2243 11.12 28.6163 11.536C28.0083 11.952 27.3203 12.16 26.5523 12.16C25.7843 12.16 25.0963 11.952 24.4883 11.536C23.8909 11.12 23.4163 10.5493 23.0643 9.824C22.7123 9.088 22.5363 8.25067 22.5363 7.312C22.5363 6.37333 22.7123 5.54133 23.0643 4.816C23.4163 4.08 23.8909 3.504 24.4883 3.088C25.0963 2.66133 25.7843 2.448 26.5523 2.448C27.3203 2.448 28.0083 2.66133 28.6163 3.088C29.2243 3.504 29.6989 4.08 30.0403 4.816C30.3923 5.54133 30.5683 6.37333 30.5683 7.312ZM29.4643 7.312C29.4643 6.55467 29.3416 5.888 29.0963 5.312C28.8509 4.736 28.5096 4.288 28.0723 3.968C27.6349 3.63733 27.1283 3.472 26.5523 3.472C25.9763 3.472 25.4696 3.63733 25.0323 3.968C24.5949 4.288 24.2483 4.736 23.9923 5.312C23.7469 5.888 23.6243 6.55467 23.6243 7.312C23.6243 8.06933 23.7469 8.736 23.9923 9.312C24.2483 9.888 24.5949 10.336 25.0323 10.656C25.4696 10.976 25.9763 11.136 26.5523 11.136C27.1283 11.136 27.6349 10.976 28.0723 10.656C28.5096 10.3253 28.8509 9.87733 29.0963 9.312C29.3416 8.736 29.4643 8.06933 29.4643 7.312ZM32.1571 12C32.1571 11.6373 32.1891 11.2747 32.2531 10.912C32.3171 10.5387 32.4398 10.1707 32.6211 9.808C32.8025 9.44533 33.0691 9.09867 33.4211 8.768C33.7731 8.42667 34.2371 8.10667 34.8131 7.808C35.1225 7.648 35.4425 7.49333 35.7731 7.344C36.1038 7.184 36.4131 7.01333 36.7011 6.832C36.9998 6.64 37.2345 6.42667 37.4051 6.192C37.5865 5.94667 37.6771 5.65867 37.6771 5.328C37.6771 5.06133 37.5971 4.8 37.4371 4.544C37.2878 4.288 37.0531 4.08 36.7331 3.92C36.4238 3.76 36.0345 3.68 35.5651 3.68C35.2238 3.68 34.9145 3.728 34.6371 3.824C34.3598 3.92 34.1145 4.04267 33.9011 4.192C33.6878 4.33067 33.5065 4.47467 33.3571 4.624C33.2078 4.76267 33.0851 4.88 32.9891 4.976L32.3011 4.224C32.3545 4.16 32.4718 4.048 32.6531 3.888C32.8451 3.71733 33.0851 3.54133 33.3731 3.36C33.6718 3.17867 34.0185 3.024 34.4131 2.896C34.8185 2.768 35.2611 2.704 35.7411 2.704C36.3918 2.704 36.9465 2.82133 37.4051 3.056C37.8745 3.28 38.2318 3.584 38.4771 3.968C38.7225 4.352 38.8451 4.768 38.8451 5.216C38.8451 5.65333 38.7491 6.032 38.5571 6.352C38.3758 6.66133 38.1358 6.93333 37.8371 7.168C37.5491 7.392 37.2451 7.58933 36.9251 7.76C36.6158 7.92 36.3331 8.05867 36.0771 8.176C35.5758 8.41067 35.1545 8.64533 34.8131 8.88C34.4718 9.11467 34.1998 9.35467 33.9971 9.6C33.7945 9.83467 33.6345 10.0693 33.5171 10.304C33.4105 10.528 33.3358 10.7627 33.2931 11.008H39.0211V12H32.1571ZM40.5009 12C40.5009 11.6373 40.5329 11.2747 40.5969 10.912C40.6609 10.5387 40.7835 10.1707 40.9649 9.808C41.1462 9.44533 41.4129 9.09867 41.7649 8.768C42.1169 8.42667 42.5809 8.10667 43.1569 7.808C43.4662 7.648 43.7862 7.49333 44.1169 7.344C44.4475 7.184 44.7569 7.01333 45.0449 6.832C45.3435 6.64 45.5782 6.42667 45.7489 6.192C45.9302 5.94667 46.0209 5.65867 46.0209 5.328C46.0209 5.06133 45.9409 4.8 45.7809 4.544C45.6315 4.288 45.3969 4.08 45.0769 3.92C44.7675 3.76 44.3782 3.68 43.9089 3.68C43.5675 3.68 43.2582 3.728 42.9809 3.824C42.7035 3.92 42.4582 4.04267 42.2449 4.192C42.0315 4.33067 41.8502 4.47467 41.7009 4.624C41.5515 4.76267 41.4289 4.88 41.3329 4.976L40.6449 4.224C40.6982 4.16 40.8155 4.048 40.9969 3.888C41.1889 3.71733 41.4289 3.54133 41.7169 3.36C42.0155 3.17867 42.3622 3.024 42.7569 2.896C43.1622 2.768 43.6049 2.704 44.0849 2.704C44.7355 2.704 45.2902 2.82133 45.7489 3.056C46.2182 3.28 46.5755 3.584 46.8209 3.968C47.0662 4.352 47.1889 4.768 47.1889 5.216C47.1889 5.65333 47.0929 6.032 46.9009 6.352C46.7195 6.66133 46.4795 6.93333 46.1809 7.168C45.8929 7.392 45.5889 7.58933 45.2689 7.76C44.9595 7.92 44.6769 8.05867 44.4209 8.176C43.9195 8.41067 43.4982 8.64533 43.1569 8.88C42.8155 9.11467 42.5435 9.35467 42.3409 9.6C42.1382 9.83467 41.9782 10.0693 41.8609 10.304C41.7542 10.528 41.6795 10.7627 41.6369 11.008H47.3649V12H40.5009ZM53.1443 0.639999L56.8563 6.752L60.6003 0.639999H61.8163L57.4163 7.776V12H56.2963V7.744L51.9123 0.639999H53.1443ZM65.3614 12.16C64.764 12.16 64.2094 12.048 63.6974 11.824C63.196 11.5893 62.7587 11.2747 62.3854 10.88C62.0227 10.4747 61.74 10.016 61.5374 9.504C61.3347 8.98133 61.2334 8.432 61.2334 7.856C61.2334 7.25867 61.3347 6.704 61.5374 6.192C61.74 5.66933 62.028 5.21067 62.4014 4.816C62.7747 4.41067 63.212 4.096 63.7134 3.872C64.2254 3.63733 64.78 3.52 65.3774 3.52C65.9747 3.52 66.524 3.63733 67.0254 3.872C67.5267 4.096 67.964 4.41067 68.3374 4.816C68.7107 5.21067 68.9987 5.66933 69.2014 6.192C69.404 6.704 69.5054 7.25867 69.5054 7.856C69.5054 8.432 69.404 8.98133 69.2014 9.504C68.9987 10.016 68.7107 10.4747 68.3374 10.88C67.9747 11.2747 67.5374 11.5893 67.0254 11.824C66.524 12.048 65.9694 12.16 65.3614 12.16ZM62.3374 7.872C62.3374 8.49067 62.4707 9.056 62.7374 9.568C63.0147 10.0693 63.3827 10.4693 63.8414 10.768C64.3 11.056 64.8067 11.2 65.3614 11.2C65.916 11.2 66.4227 11.0507 66.8814 10.752C67.34 10.4533 67.708 10.048 67.9854 9.536C68.2627 9.01333 68.4014 8.448 68.4014 7.84C68.4014 7.22133 68.2627 6.656 67.9854 6.144C67.708 5.632 67.34 5.22667 66.8814 4.928C66.4227 4.62933 65.916 4.48 65.3614 4.48C64.8067 4.48 64.3 4.63467 63.8414 4.944C63.3934 5.25333 63.0307 5.664 62.7534 6.176C62.476 6.67733 62.3374 7.24267 62.3374 7.872ZM71.245 8.56V3.664H72.333V8.368C72.333 9.31733 72.493 10.0267 72.813 10.496C73.1437 10.9653 73.629 11.2 74.269 11.2C74.6957 11.2 75.1063 11.1093 75.501 10.928C75.9063 10.736 76.2637 10.4693 76.573 10.128C76.8823 9.776 77.117 9.37067 77.277 8.912V3.664H78.365V10.688C78.365 10.8373 78.397 10.9493 78.461 11.024C78.525 11.088 78.621 11.1253 78.749 11.136V12C78.621 12.0107 78.5197 12.016 78.445 12.016C78.3703 12.0267 78.301 12.032 78.237 12.032C78.0237 12.0107 77.837 11.9253 77.677 11.776C77.5277 11.6267 77.4477 11.4453 77.437 11.232L77.405 10.112C77.0423 10.752 76.5463 11.2533 75.917 11.616C75.2983 11.9787 74.6263 12.16 73.901 12.16C73.0263 12.16 72.365 11.856 71.917 11.248C71.469 10.64 71.245 9.744 71.245 8.56ZM84.985 4.624C84.2597 4.64533 83.6197 4.848 83.065 5.232C82.521 5.616 82.137 6.144 81.913 6.816V12H80.825V3.664H81.849V5.664C82.137 5.07733 82.5157 4.60267 82.985 4.24C83.465 3.87733 83.9717 3.67467 84.505 3.632C84.6117 3.62133 84.7023 3.616 84.777 3.616C84.8623 3.616 84.9317 3.62133 84.985 3.632V4.624ZM98.9055 9.072C98.9055 9.63733 98.7615 10.144 98.4735 10.592C98.1855 11.0293 97.7962 11.376 97.3055 11.632C96.8255 11.8773 96.2975 12 95.7215 12H90.3615V0.639999H95.8335C96.3668 0.639999 96.8255 0.783999 97.2095 1.072C97.6042 1.34933 97.9028 1.712 98.1055 2.16C98.3188 2.59733 98.4255 3.056 98.4255 3.536C98.4255 4.10133 98.2815 4.624 97.9935 5.104C97.7055 5.584 97.3055 5.94133 96.7935 6.176C97.4442 6.368 97.9562 6.72533 98.3295 7.248C98.7135 7.77067 98.9055 8.37867 98.9055 9.072ZM97.7855 8.88C97.7855 8.496 97.7002 8.144 97.5295 7.824C97.3588 7.49333 97.1242 7.22667 96.8255 7.024C96.5375 6.82133 96.2068 6.72 95.8335 6.72H91.4815V11.024H95.7215C96.1055 11.024 96.4522 10.9227 96.7615 10.72C97.0708 10.5173 97.3162 10.256 97.4975 9.936C97.6895 9.60533 97.7855 9.25333 97.7855 8.88ZM91.4815 1.616V5.808H95.3855C95.7588 5.808 96.0895 5.712 96.3775 5.52C96.6655 5.31733 96.8948 5.056 97.0655 4.736C97.2362 4.416 97.3215 4.07467 97.3215 3.712C97.3215 3.328 97.2415 2.98133 97.0815 2.672C96.9215 2.352 96.7028 2.096 96.4255 1.904C96.1482 1.712 95.8335 1.616 95.4815 1.616H91.4815ZM104.954 4.624C104.228 4.64533 103.588 4.848 103.034 5.232C102.49 5.616 102.106 6.144 101.882 6.816V12H100.794V3.664H101.818V5.664C102.106 5.07733 102.484 4.60267 102.954 4.24C103.434 3.87733 103.94 3.67467 104.474 3.632C104.58 3.62133 104.671 3.616 104.746 3.616C104.831 3.616 104.9 3.62133 104.954 3.632V4.624ZM105.7 9.6C105.7 9.07733 105.849 8.62933 106.148 8.256C106.447 7.872 106.857 7.57867 107.38 7.376C107.913 7.16267 108.527 7.056 109.22 7.056C109.625 7.056 110.047 7.088 110.484 7.152C110.921 7.216 111.311 7.312 111.652 7.44V6.736C111.652 6.032 111.444 5.472 111.028 5.056C110.612 4.64 110.036 4.432 109.3 4.432C108.852 4.432 108.409 4.51733 107.972 4.688C107.545 4.848 107.097 5.088 106.628 5.408L106.212 4.64C106.756 4.26667 107.289 3.98933 107.812 3.808C108.335 3.616 108.868 3.52 109.412 3.52C110.436 3.52 111.247 3.81333 111.844 4.4C112.441 4.98667 112.74 5.79733 112.74 6.832V10.688C112.74 10.8373 112.772 10.9493 112.836 11.024C112.9 11.088 113.001 11.1253 113.14 11.136V12C113.023 12.0107 112.921 12.0213 112.836 12.032C112.751 12.0427 112.687 12.0427 112.644 12.032C112.377 12.0213 112.175 11.936 112.036 11.776C111.897 11.616 111.823 11.4453 111.812 11.264L111.796 10.656C111.423 11.136 110.937 11.5093 110.34 11.776C109.743 12.032 109.135 12.16 108.516 12.16C107.983 12.16 107.497 12.048 107.06 11.824C106.633 11.5893 106.297 11.28 106.052 10.896C105.817 10.5013 105.7 10.0693 105.7 9.6ZM111.284 10.24C111.401 10.0907 111.492 9.94667 111.556 9.808C111.62 9.66933 111.652 9.54667 111.652 9.44V8.224C111.289 8.08533 110.911 7.97867 110.516 7.904C110.132 7.82933 109.743 7.792 109.348 7.792C108.569 7.792 107.94 7.94667 107.46 8.256C106.98 8.56533 106.74 8.98667 106.74 9.52C106.74 9.82933 106.82 10.1227 106.98 10.4C107.14 10.6667 107.375 10.8907 107.684 11.072C107.993 11.2427 108.356 11.328 108.772 11.328C109.295 11.328 109.78 11.2267 110.228 11.024C110.687 10.8213 111.039 10.56 111.284 10.24ZM122.099 12H121.011V7.344C121.011 6.36267 120.867 5.648 120.579 5.2C120.291 4.74133 119.837 4.512 119.219 4.512C118.792 4.512 118.371 4.61867 117.955 4.832C117.539 5.03467 117.171 5.31733 116.851 5.68C116.541 6.032 116.317 6.43733 116.179 6.896V12H115.091V3.664H116.083V5.552C116.307 5.14667 116.6 4.79467 116.963 4.496C117.325 4.18667 117.736 3.94667 118.195 3.776C118.653 3.60533 119.128 3.52 119.619 3.52C120.077 3.52 120.467 3.60533 120.787 3.776C121.107 3.94667 121.363 4.192 121.555 4.512C121.747 4.82133 121.885 5.2 121.971 5.648C122.056 6.08533 122.099 6.576 122.099 7.12V12ZM123.859 7.856C123.859 7.06667 124.019 6.34667 124.339 5.696C124.669 5.03467 125.123 4.50667 125.699 4.112C126.275 3.71733 126.931 3.52 127.667 3.52C128.36 3.52 128.979 3.70667 129.523 4.08C130.077 4.44267 130.509 4.88533 130.819 5.408V0.32H131.907V10.688C131.907 10.8373 131.939 10.9493 132.003 11.024C132.067 11.088 132.163 11.1253 132.291 11.136V12C132.077 12.032 131.912 12.0427 131.795 12.032C131.571 12.0213 131.373 11.9307 131.203 11.76C131.032 11.5893 130.947 11.4027 130.947 11.2V10.384C130.616 10.928 130.168 11.36 129.603 11.68C129.037 12 128.451 12.16 127.843 12.16C127.267 12.16 126.733 12.0427 126.243 11.808C125.763 11.5733 125.341 11.2533 124.979 10.848C124.627 10.4427 124.349 9.984 124.147 9.472C123.955 8.94933 123.859 8.41067 123.859 7.856ZM130.819 9.136V6.56C130.68 6.176 130.456 5.82933 130.147 5.52C129.837 5.2 129.485 4.94933 129.091 4.768C128.707 4.576 128.323 4.48 127.939 4.48C127.491 4.48 127.085 4.576 126.723 4.768C126.36 4.94933 126.045 5.2 125.779 5.52C125.523 5.84 125.325 6.20267 125.187 6.608C125.048 7.01333 124.979 7.42933 124.979 7.856C124.979 8.304 125.053 8.73067 125.203 9.136C125.363 9.54133 125.587 9.904 125.875 10.224C126.163 10.5333 126.493 10.7733 126.867 10.944C127.24 11.1147 127.645 11.2 128.083 11.2C128.36 11.2 128.648 11.1467 128.947 11.04C129.245 10.9333 129.528 10.7893 129.795 10.608C130.072 10.416 130.301 10.192 130.483 9.936C130.664 9.68 130.776 9.41333 130.819 9.136ZM139.794 2.704V12H138.674V0.639999H139.602L147.058 10.112V0.655999H148.178V12H147.138L139.794 2.704ZM150.059 9.6C150.059 9.07733 150.209 8.62933 150.507 8.256C150.806 7.872 151.217 7.57867 151.739 7.376C152.273 7.16267 152.886 7.056 153.579 7.056C153.985 7.056 154.406 7.088 154.843 7.152C155.281 7.216 155.67 7.312 156.011 7.44V6.736C156.011 6.032 155.803 5.472 155.387 5.056C154.971 4.64 154.395 4.432 153.659 4.432C153.211 4.432 152.769 4.51733 152.331 4.688C151.905 4.848 151.457 5.088 150.987 5.408L150.571 4.64C151.115 4.26667 151.649 3.98933 152.171 3.808C152.694 3.616 153.227 3.52 153.771 3.52C154.795 3.52 155.606 3.81333 156.203 4.4C156.801 4.98667 157.099 5.79733 157.099 6.832V10.688C157.099 10.8373 157.131 10.9493 157.195 11.024C157.259 11.088 157.361 11.1253 157.499 11.136V12C157.382 12.0107 157.281 12.0213 157.195 12.032C157.11 12.0427 157.046 12.0427 157.003 12.032C156.737 12.0213 156.534 11.936 156.395 11.776C156.257 11.616 156.182 11.4453 156.171 11.264L156.155 10.656C155.782 11.136 155.297 11.5093 154.699 11.776C154.102 12.032 153.494 12.16 152.875 12.16C152.342 12.16 151.857 12.048 151.419 11.824C150.993 11.5893 150.657 11.28 150.411 10.896C150.177 10.5013 150.059 10.0693 150.059 9.6ZM155.643 10.24C155.761 10.0907 155.851 9.94667 155.915 9.808C155.979 9.66933 156.011 9.54667 156.011 9.44V8.224C155.649 8.08533 155.27 7.97867 154.875 7.904C154.491 7.82933 154.102 7.792 153.707 7.792C152.929 7.792 152.299 7.94667 151.819 8.256C151.339 8.56533 151.099 8.98667 151.099 9.52C151.099 9.82933 151.179 10.1227 151.339 10.4C151.499 10.6667 151.734 10.8907 152.043 11.072C152.353 11.2427 152.715 11.328 153.131 11.328C153.654 11.328 154.139 11.2267 154.587 11.024C155.046 10.8213 155.398 10.56 155.643 10.24ZM171.85 12H170.762V7.344C170.762 6.37333 170.607 5.65867 170.298 5.2C169.989 4.74133 169.53 4.512 168.922 4.512C168.293 4.512 167.727 4.736 167.226 5.184C166.735 5.632 166.389 6.208 166.186 6.912V12H165.098V7.344C165.098 6.36267 164.949 5.648 164.65 5.2C164.351 4.74133 163.893 4.512 163.274 4.512C162.655 4.512 162.095 4.73067 161.594 5.168C161.093 5.60533 160.741 6.18133 160.538 6.896V12H159.45V3.664H160.442V5.552C160.794 4.90133 161.242 4.4 161.786 4.048C162.341 3.696 162.954 3.52 163.626 3.52C164.319 3.52 164.879 3.71733 165.306 4.112C165.733 4.50667 165.994 5.024 166.09 5.664C166.474 4.96 166.933 4.42667 167.466 4.064C168.01 3.70133 168.623 3.52 169.306 3.52C169.775 3.52 170.17 3.60533 170.49 3.776C170.821 3.94667 171.082 4.192 171.274 4.512C171.477 4.82133 171.621 5.2 171.706 5.648C171.802 6.08533 171.85 6.576 171.85 7.12V12ZM177.753 12.16C177.156 12.16 176.601 12.048 176.089 11.824C175.577 11.5893 175.134 11.2747 174.761 10.88C174.388 10.4747 174.094 10.0107 173.881 9.488C173.678 8.96533 173.577 8.40533 173.577 7.808C173.577 7.02933 173.753 6.31467 174.105 5.664C174.468 5.01333 174.964 4.496 175.593 4.112C176.222 3.71733 176.937 3.52 177.737 3.52C178.558 3.52 179.273 3.71733 179.881 4.112C180.5 4.50667 180.985 5.02933 181.337 5.68C181.689 6.32 181.865 7.024 181.865 7.792C181.865 7.87733 181.865 7.96267 181.865 8.048C181.865 8.12267 181.86 8.18133 181.849 8.224H174.713C174.766 8.82133 174.932 9.35467 175.209 9.824C175.497 10.2827 175.865 10.6507 176.313 10.928C176.772 11.1947 177.268 11.328 177.801 11.328C178.345 11.328 178.857 11.1893 179.337 10.912C179.828 10.6347 180.169 10.272 180.361 9.824L181.305 10.08C181.134 10.4747 180.873 10.832 180.521 11.152C180.169 11.472 179.753 11.7227 179.273 11.904C178.804 12.0747 178.297 12.16 177.753 12.16ZM174.681 7.44H180.841C180.798 6.832 180.633 6.29867 180.345 5.84C180.068 5.38133 179.7 5.024 179.241 4.768C178.793 4.50133 178.297 4.368 177.753 4.368C177.209 4.368 176.713 4.50133 176.265 4.768C175.817 5.024 175.449 5.38667 175.161 5.856C174.884 6.31467 174.724 6.84267 174.681 7.44Z" fill="#1D2F38"/>
</svg>
